<svg width="202" height="49" viewBox="0 0 202 49" fill="none" xmlns="http://www.w3.org/2000/svg">
<path d="M114.357 8.4978H110.66V12.1949H114.357V8.4978Z" fill="#00E3DF"/>
<path d="M108.018 18.3751C108.018 11.5879 104.266 8.05634 96.8167 8.05634C87.8223 8.05634 83.4631 13.1881 83.4631 22.7895C83.4631 33.329 87.5464 38.0193 98.3618 38.0193C101.342 38.0193 104.873 37.7986 106.86 37.3571L106.528 33.9911C103.935 34.2119 100.9 34.3774 98.7481 34.3774C91.0228 34.3774 88.5949 31.3977 88.4293 24.2794H103.659C106.749 24.2794 108.018 22.624 108.018 18.3751ZM103.218 20.8582H88.4293C88.4293 15.1194 91.4642 11.5879 96.8167 11.5879C101.121 11.5879 103.218 13.6296 103.218 17.9336V20.8582ZM65.1556 8.05634C63.7067 8.05634 62.167 8.12398 60.686 8.25036V10.5804L58.5803 8.47464C57.5781 8.60459 56.6418 8.75945 55.8301 8.94101V49.002H60.686V35.497L62.8612 37.6722C64.1428 37.8983 65.5686 38.0211 67.1421 38.0211C76.4124 37.9659 80.0543 33.717 80.0543 23.1776C80.0543 12.6381 75.9158 8.05812 65.1556 8.05812V8.05634ZM67.1973 34.2119H60.686V11.8638H67.1973C72.7705 11.8638 74.8674 15.0643 74.8674 23.3413C74.8674 31.6184 72.8809 34.2119 67.1973 34.2119ZM194.495 21.3548L188.48 19.4235C185.501 18.4854 184.728 17.4922 184.728 15.285C184.728 12.526 185.942 11.8086 189.915 11.8086H200.841V8.49779C198.854 8.22188 194.771 8.05634 192.012 8.05634C182.962 8.05634 179.817 9.82211 179.817 15.1746C179.817 19.258 181.638 21.5204 186.825 23.3965L192.233 25.1623C195.709 26.3211 196.261 26.9832 196.261 30.0181C196.261 33.6049 195.488 34.267 191.074 34.267H180.424V37.5779C182.631 37.8538 186.273 38.0193 189.198 38.0193C198.523 38.0193 201.227 36.3087 201.227 30.0181C201.227 25.2175 199.627 23.0654 194.495 21.3548ZM119.213 31.0114V12.1949H125.835V8.49779H119.213V0L114.357 0.386263V31.2873C114.357 36.088 116.454 38.0193 121.31 38.0193C123.02 38.0193 125.393 37.7986 126.662 37.4675V34.1567H122.193C120.041 34.1567 119.213 33.329 119.213 31.0114ZM170.052 34.2119H163.761C158.574 34.2119 156.698 32.2805 156.698 27.0936V8.49779H151.842V27.0936C151.842 34.9292 155.374 38.0193 164.092 38.0193C165.121 38.0193 166.355 37.9819 167.649 37.9107L170.052 35.5077V37.7487C171.812 37.6063 173.525 37.4159 174.853 37.1898V8.49779H170.052V34.2119ZM131.782 8.88405V37.5779H136.637V9.59071L138.992 11.9457C139.532 11.9279 140.094 11.919 140.721 11.919C142.873 11.919 145.025 12.0293 146.735 12.2501L147.342 8.82887C144.859 8.27706 142.321 8.05634 140.003 8.05634C137.686 8.05634 135.148 8.27706 131.782 8.88405Z" fill="#4D585C"/>
<path d="M8.46044 22.6401L37.7043 22.6401V20.408L8.46044 20.408V22.6401Z" fill="#99F4F2"/>
<path d="M9.61572 19.6621L43.8276 19.6621V17.43L9.61572 17.43V19.6621Z" fill="#0E1A44"/>
<path d="M0.724539 19.6621H4.28101V17.43H0.724539L0.724539 19.6621Z" fill="#0E1A44"/>
<path d="M4.28279 19.6621H9.61749V17.43H4.28279V19.6621Z" fill="#DDFEA3"/>
<path d="M41.4832 23.386H3.07056V25.6181H41.4832V23.386Z" fill="#0E1A44"/>
<path d="M33.9164 11.4758H9.61743V13.708H33.9164V11.4758Z" fill="#0E1A44"/>
<path d="M40.2301 11.4758H37.7043V13.708H40.2301V11.4758Z" fill="#0E1A44"/>
<path d="M37.7043 11.4758H33.9147V13.708H37.7043V11.4758Z" fill="#99F4F2"/>
<path d="M16.7054 16.6858L43.4341 16.6858V14.4537L16.7054 14.4537V16.6858Z" fill="#4D585C"/>
<path d="M3.74864 16.6858H12.5348V14.4537H3.74864V16.6858Z" fill="#4D585C"/>
<path d="M12.5367 16.6858H16.7054V14.4537H12.5367V16.6858Z" fill="#EFFDFD"/>
<path d="M33.8933 10.73H38.5125V8.49784H33.8933V10.73Z" fill="#4D585C"/>
<path d="M26.7216 10.73H29.7245V8.49784H26.7216V10.73Z" fill="#4D585C"/>
<path d="M29.7245 10.73H33.8933V8.49784H29.7245V10.73Z" fill="#EFFDFD"/>
<path d="M13.8147 37.5298H17.0934V35.2976H13.8147V37.5298Z" fill="#4D585C"/>
<path d="M8.72559 37.5298H10.8563V35.2976H8.72559V37.5298Z" fill="#4D585C"/>
<path d="M10.8563 37.5298H13.8165V35.2976H10.8563V37.5298Z" fill="#4D585C"/>
<path d="M32.2485 32.3196H5.29913V34.5517H32.2485V32.3196Z" fill="#0E1A44"/>
<path d="M39.2546 32.3196H36.4529V34.5517H39.2546V32.3196Z" fill="#0E1A44"/>
<path d="M36.4511 32.3196H32.2485V34.5517H36.4511V32.3196Z" fill="#99F4F2"/>
<path d="M26.9494 26.3638H0V28.5959H26.9494V26.3638Z" fill="#0E1A44"/>
<path d="M44.5538 26.3638H31.1538V28.5959H44.5538V26.3638Z" fill="#0E1A44"/>
<path d="M31.1521 26.3638H26.9495V28.5959H31.1521V26.3638Z" fill="#99F4F2"/>
<path d="M21.2267 31.5757L42.3626 31.5757V29.3435L21.2267 29.3435V31.5757Z" fill="#4D585C"/>
<path d="M2.19296 31.5757H16.2551V29.3435H2.19296V31.5757Z" fill="#4D585C"/>
<path d="M16.2533 31.5757H21.2249V29.3435H16.2533V31.5757Z" fill="#EFFDFD"/>
</svg>
